<?xml version="1.0" standalone="no"?>
<!DOCTYPE svg PUBLIC "-//W3C//DTD SVG 20010904//EN"
 "http://www.w3.org/TR/2001/REC-SVG-20010904/DTD/svg10.dtd">
<svg version="1.0" xmlns="http://www.w3.org/2000/svg"
 width="500.000000pt" height="500.000000pt" viewBox="0 0 500.000000 500.000000"
 preserveAspectRatio="xMidYMid meet">

<g transform="translate(0.000000,500.000000) scale(0.100000,-0.100000)"
fill="#000000" stroke="none">
<path d="M0 2500 l0 -2500 2500 0 2500 0 0 2500 0 2500 -2500 0 -2500 0 0
-2500z m3311 1097 l-18 -67 38 0 39 0 0 -121 0 -121 28 6 c70 14 234 37 244
34 6 -2 -53 -24 -131 -48 l-141 -45 0 -832 0 -833 -980 0 -980 0 0 980 0 980
920 0 921 0 36 76 c21 42 38 73 40 68 2 -5 -5 -40 -16 -77z"/>
<path d="M1470 2550 l0 -920 920 0 920 0 0 796 c0 753 -1 795 -17 790 -10 -3
-36 -10 -59 -15 -40 -11 -42 -13 -58 -75 -10 -35 -28 -86 -41 -114 l-23 -50
29 -6 c29 -5 49 -36 49 -73 0 -22 -64 -83 -87 -83 -27 0 -53 31 -53 62 0 14
18 64 40 111 33 70 40 96 40 146 l0 60 -37 10 c-59 17 -87 13 -187 -21 -103
-35 -139 -33 -158 8 -10 20 -8 29 9 52 46 62 115 64 143 3 11 -25 19 -31 35
-26 87 25 134 35 162 35 17 0 35 6 40 13 10 16 83 200 83 210 0 4 -394 7 -875
7 l-875 0 0 -920z m740 490 l0 -130 55 0 55 0 0 -35 0 -35 -95 0 -95 0 0 165
0 165 40 0 40 0 0 -130z m380 -2 c30 -73 60 -148 67 -165 l13 -33 -39 0 c-36
0 -40 3 -51 35 -11 35 -12 35 -71 35 -59 0 -60 -1 -75 -35 -13 -32 -18 -35
-53 -35 l-39 0 66 165 c66 162 67 165 98 165 29 0 31 -3 84 -132z m-831 -353
c35 -18 55 -64 47 -108 -9 -46 -36 -68 -91 -74 l-45 -6 0 -53 0 -54 -35 0 -35
0 0 155 0 155 65 0 c38 0 78 -6 94 -15z m261 -15 c0 -30 -1 -30 -55 -30 -54 0
-55 0 -55 -29 0 -29 2 -30 53 -33 50 -3 52 -4 52 -33 0 -29 -2 -30 -52 -33
-51 -3 -53 -4 -53 -33 0 -29 1 -29 55 -29 54 0 55 0 55 -30 l0 -30 -90 0 -90
0 0 155 0 155 90 0 90 0 0 -30z m130 -95 l0 -125 55 0 c54 0 55 0 55 -30 l0
-30 -90 0 -90 0 0 155 0 155 35 0 35 0 0 -125z m210 22 c0 -112 7 -132 52
-142 19 -5 32 -1 47 14 19 19 21 33 21 126 l0 105 35 0 35 0 0 -105 c0 -163
-27 -205 -130 -205 -103 0 -130 42 -130 205 l0 105 35 0 35 0 0 -103z m527 77
c41 -31 65 -77 65 -129 0 -52 -24 -98 -65 -129 -21 -15 -47 -22 -103 -24 l-74
-4 0 157 0 157 74 -4 c56 -2 82 -9 103 -24z m293 -4 c0 -30 -1 -30 -55 -30
-54 0 -55 0 -55 -30 0 -29 1 -30 50 -30 l50 0 0 -35 0 -35 -50 0 c-49 0 -50
-1 -50 -30 0 -30 1 -30 55 -30 54 0 55 0 55 -30 l0 -30 -90 0 -90 0 0 155 0
155 90 0 90 0 0 -30z m-350 -307 c0 -5 -15 -25 -33 -46 -23 -28 -39 -38 -54
-35 l-22 3 27 42 c21 33 33 43 55 43 15 0 27 -3 27 -7z m-1016 -195 c13 -46
28 -96 32 -111 3 -15 9 -25 12 -22 4 3 20 52 37 108 l30 102 42 3 c37 3 43 0
48 -20 16 -68 55 -273 55 -289 0 -15 -8 -19 -35 -19 -41 0 -38 -5 -61 125
l-17 99 -31 -109 -32 -110 -35 -3 -36 -3 -28 98 c-15 54 -30 101 -34 106 -4 4
-13 -30 -20 -75 -20 -133 -18 -128 -63 -128 -33 0 -40 3 -36 18 3 9 18 83 33
165 l29 147 42 0 43 0 25 -82z m527 -83 l67 -165 -39 0 c-35 0 -40 4 -53 35
-15 34 -16 35 -75 35 -59 0 -60 0 -71 -35 -11 -32 -15 -35 -51 -35 l-39 0 13
33 c7 17 37 92 67 165 53 129 55 132 84 132 31 0 32 -3 97 -165z m269 148 c34
-20 50 -52 50 -100 0 -28 -7 -43 -33 -67 l-34 -31 44 -57 44 -58 -45 0 c-45 0
-47 2 -83 57 l-38 57 -3 -57 -3 -57 -34 0 -35 0 0 165 0 165 71 0 c48 0 80 -5
99 -17z m170 -148 l0 -165 -35 0 -35 0 0 165 0 165 35 0 35 0 0 -165z m291 0
l67 -165 -39 0 c-35 0 -40 4 -53 35 -15 34 -16 35 -75 35 -59 0 -60 0 -71 -35
-11 -32 -15 -35 -51 -35 l-39 0 13 33 c7 17 37 92 67 165 53 129 55 132 84
132 31 0 32 -3 97 -165z"/>
<path d="M2491 3041 c-7 -24 -15 -49 -18 -57 -4 -10 4 -14 32 -14 35 0 37 1
31 26 -4 15 -13 40 -19 57 l-13 30 -13 -42z"/>
<path d="M1670 2600 c0 -53 10 -61 51 -40 42 23 16 90 -35 90 -12 0 -16 -11
-16 -50z"/>
<path d="M2780 2545 c0 -104 4 -109 59 -80 64 32 60 134 -5 161 -18 8 -38 14
-44 14 -6 0 -10 -36 -10 -95z"/>
<path d="M2227 2115 c-22 -65 -22 -65 19 -65 39 0 38 -5 9 80 l-12 34 -16 -49z"/>
<path d="M2510 2145 c0 -51 12 -61 53 -46 21 8 27 17 27 39 0 36 -16 52 -52
52 -27 0 -28 -2 -28 -45z"/>
<path d="M2957 2115 c-22 -65 -22 -65 19 -65 39 0 38 -5 9 80 l-12 34 -16 -49z"/>
<path d="M3275 3458 c-3 -7 -18 -55 -34 -106 l-29 -93 31 6 c71 14 67 8 67
111 0 78 -3 94 -15 94 -9 0 -18 -6 -20 -12z"/>
<path d="M2786 3239 c-45 -36 -29 -79 31 -79 34 0 73 29 73 54 0 22 -29 46
-54 46 -13 0 -35 -9 -50 -21z"/>
<path d="M3092 2927 c-39 -47 -32 -107 13 -107 45 0 83 78 53 108 -16 16 -53
15 -66 -1z"/>
</g>
</svg>
